<svg width="87" height="49" viewBox="0 0 87 49" fill="none" xmlns="http://www.w3.org/2000/svg">
<path d="M20.8632 22.3305C23.0001 22.3305 24.7323 20.5545 24.7323 18.3638C24.7323 16.1731 23.0001 14.3972 20.8632 14.3972C18.7264 14.3972 16.9941 16.1731 16.9941 18.3638C16.9941 20.5545 18.7264 22.3305 20.8632 22.3305Z" stroke="white" stroke-width="0.731399" stroke-miterlimit="10"/>
<path d="M23.9589 10.2722C26.0958 10.2722 27.828 8.49626 27.828 6.30555C27.828 4.11485 26.0958 2.33893 23.9589 2.33893C21.8221 2.33893 20.0898 4.11485 20.0898 6.30555C20.0898 8.49626 21.8221 10.2722 23.9589 10.2722Z" stroke="white" stroke-width="0.731399" stroke-miterlimit="10"/>
<path d="M24.1086 6.74202C24.1396 6.73996 24.1698 6.73128 24.1971 6.71656C24.2245 6.70184 24.2483 6.68142 24.2671 6.65669C24.6474 6.13252 24.1647 5.97648 24.1647 5.97648L16.6874 6.57379C16.6516 6.5784 16.6153 6.57423 16.5815 6.56164C16.5477 6.54904 16.5175 6.52841 16.4935 6.50152C16.4695 6.47463 16.4524 6.44229 16.4437 6.40731C16.435 6.37232 16.435 6.33574 16.4436 6.30074C16.5756 5.67817 16.8043 5.08011 17.1213 4.52831C17.1598 4.45813 17.2164 4.39958 17.2852 4.3588C17.3541 4.31801 17.4326 4.29649 17.5126 4.29649C17.5927 4.29649 17.6712 4.31801 17.74 4.3588C17.8089 4.39958 17.8655 4.45813 17.9039 4.52831L17.9015 5.14269C17.8989 5.18455 17.9091 5.22621 17.9307 5.26215C17.9729 5.32651 18.0297 5.37998 18.0965 5.41818C18.1282 5.43464 18.1633 5.44315 18.199 5.44295C18.2347 5.44275 18.2698 5.43387 18.3012 5.41706C18.3327 5.40025 18.3596 5.37602 18.3795 5.34648C18.3995 5.31694 18.412 5.28298 18.4159 5.24752C18.4744 4.75992 18.489 3.6677 17.47 3.62382C16.0949 3.55555 15.7366 6.1569 15.6512 7.11503C15.647 7.1602 15.6525 7.20574 15.6673 7.24862C15.6821 7.2915 15.7059 7.33074 15.737 7.36372C15.7681 7.39671 15.8059 7.42268 15.8479 7.43991C15.8899 7.45715 15.935 7.46524 15.9804 7.46366H17.1018C17.1327 7.46385 17.1632 7.47048 17.1914 7.48313C17.2195 7.49577 17.2447 7.51416 17.2654 7.5371C17.286 7.56005 17.3017 7.58705 17.3113 7.61639C17.3209 7.64572 17.3243 7.67674 17.3212 7.70746L16.7971 13.349C16.793 13.4019 16.7696 13.4514 16.7314 13.4883C16.6932 13.5251 16.6429 13.5467 16.5898 13.5489L15.0198 13.6416C14.9864 13.6432 14.9532 13.6373 14.9224 13.6242C14.8917 13.6112 14.8643 13.5915 14.8423 13.5664C14.8203 13.5413 14.8042 13.5116 14.7952 13.4794C14.7863 13.4473 14.7847 13.4135 14.7906 13.3807C14.845 13.1099 14.8776 12.8351 14.8881 12.5591C14.8881 12.2811 14.6443 12.1788 14.5176 12.1007C14.5002 12.0891 14.4803 12.0819 14.4595 12.0798C14.4388 12.0777 14.4178 12.0808 14.3985 12.0888C14.3792 12.0967 14.3622 12.1093 14.3489 12.1254C14.3357 12.1416 14.3266 12.1607 14.3225 12.1812L13.7008 15.1531C13.6928 15.1879 13.6935 15.2241 13.7029 15.2586C13.7123 15.293 13.73 15.3246 13.7545 15.3506C13.8276 15.4257 13.9255 15.4716 14.03 15.4798C14.0793 15.4841 14.1286 15.4719 14.1701 15.4449C14.2117 15.418 14.243 15.3779 14.2591 15.3311L14.5151 14.5997C14.5285 14.5597 14.553 14.5244 14.5859 14.4981C14.6187 14.4717 14.6585 14.4554 14.7004 14.451L16.5679 14.2657C16.6022 14.2621 16.6368 14.2666 16.669 14.2789C16.7012 14.2912 16.73 14.3109 16.7532 14.3364L20.7515 18.7248C20.7722 18.7476 20.7974 18.766 20.8255 18.7786C20.8536 18.7911 20.884 18.7977 20.9149 18.7979H21.066C21.1125 18.7982 21.1578 18.7837 21.1955 18.7565C21.2331 18.7293 21.2612 18.6909 21.2757 18.6468L23.1724 13.0247C23.1845 12.989 23.1873 12.9507 23.1804 12.9136C23.1736 12.8765 23.1574 12.8418 23.1334 12.8126L18.745 7.54656C18.725 7.52381 18.71 7.49702 18.7012 7.468C18.6924 7.43898 18.6898 7.4084 18.6938 7.37833V7.32714C18.6999 7.27652 18.7235 7.22962 18.7604 7.19447C18.7973 7.15932 18.8453 7.13813 18.8962 7.13453L24.1086 6.74202ZM22.1363 14.0146L20.9173 17.3571C20.904 17.3925 20.8819 17.424 20.8531 17.4485C20.8242 17.473 20.7896 17.4897 20.7524 17.4971C20.7153 17.5044 20.6769 17.5021 20.6409 17.4904C20.6049 17.4787 20.5725 17.458 20.5467 17.4302L17.8479 14.5046C17.821 14.475 17.8026 14.4387 17.7947 14.3995C17.7868 14.3604 17.7896 14.3198 17.8028 14.2821C17.8161 14.2443 17.8392 14.2109 17.8699 14.1853C17.9006 14.1597 17.9376 14.1428 17.9771 14.1365L21.8779 13.5075C21.9084 13.5044 21.9392 13.5077 21.9684 13.5172C21.9975 13.5267 22.0244 13.5421 22.0473 13.5625C22.0702 13.5829 22.0887 13.6078 22.1015 13.6357C22.1143 13.6636 22.1211 13.6938 22.1217 13.7244V13.9365C22.1318 13.9613 22.1367 13.9878 22.1363 14.0146ZM21.756 12.6761L17.7698 13.3051C17.737 13.3086 17.7038 13.3046 17.6726 13.2936C17.6415 13.2826 17.6132 13.2647 17.5898 13.2413C17.5664 13.218 17.5486 13.1897 17.5376 13.1585C17.5265 13.1274 17.5226 13.0942 17.526 13.0613L18.0136 8.42911C18.0214 8.39019 18.0395 8.35408 18.066 8.32453C18.0926 8.29499 18.1265 8.2731 18.1644 8.26115C18.2022 8.24919 18.2426 8.24761 18.2813 8.25657C18.3199 8.26553 18.3555 8.2847 18.3842 8.31209L21.8876 12.3128C21.9132 12.3427 21.9304 12.3788 21.9375 12.4174C21.9446 12.4561 21.9412 12.4959 21.9278 12.5329C21.9144 12.5699 21.8915 12.6026 21.8613 12.6277C21.8311 12.6529 21.7947 12.6696 21.756 12.6761Z" fill="white" stroke="white" stroke-width="0.2438" stroke-miterlimit="10"/>
<path d="M65.6308 41.2972L67.3106 36.8307L63.5 34.0465H68.3736L69.9314 29.6216L71.2016 34.127H75.8704L71.9379 36.7503L73.1277 41.2972L69.6852 38.7153" fill="#F57520"/>
<path d="M45.5352 48.7628H50.4266L64.0335 1.6275H59.1421L45.5352 48.7628Z" fill="white"/>
<path fill-rule="evenodd" clip-rule="evenodd" d="M52.7383 48.7628L54.2502 44.0493H71.4145L71.7135 44.0495C72.1615 44.05 72.5882 44.0505 72.9986 44.0403C75.29 43.9169 77.3833 42.6646 78.9995 41.0182C80.6744 39.3121 81.6131 37.0157 81.6134 34.6235C81.6135 32.2156 80.6631 29.9051 78.9693 28.1955C78.1052 27.3232 77.094 26.9124 75.9914 26.7165C75.2809 26.6217 74.5645 26.5653 73.8648 26.5419C73.5559 26.5356 73.2432 26.5335 72.9276 26.5314C72.8257 26.5307 72.7235 26.53 72.6211 26.5292H58.8748L60.2088 22.2603H66.9678C68.1738 22.2603 68.8877 22.2729 69.5087 22.2839C70.5363 22.3021 71.3097 22.3158 73.6379 22.2603C74.8619 22.2312 75.6672 22.1925 76.3827 21.9992C77.54 21.5659 78.6006 20.8822 79.4828 19.9832C81.0516 18.3844 81.9309 16.2324 81.9312 13.9907C81.9313 11.7342 81.0694 9.27717 79.4828 7.67505C77.8965 6.07327 75.7531 5.82592 73.5007 5.80743H65.1002L66.0785 1.62751H72.126C72.6095 1.62751 72.9971 1.62295 73.3334 1.61899C74.4817 1.60547 75.0309 1.59901 76.7506 1.80538C76.989 1.83399 77.2073 1.878 77.4097 1.93574C79.4346 2.29055 81.2992 3.03294 82.8138 4.56234C85.2684 7.04111 86.6069 10.4995 86.6228 13.9907C86.6076 17.4597 85.2409 20.7856 82.8138 23.2604C82.5035 23.5768 82.1776 23.8528 81.838 24.0938C82.0669 24.2688 82.2899 24.4645 82.5066 24.6832C85.1271 27.3283 86.605 30.8981 86.622 34.6235C86.6057 38.3253 85.1467 41.8745 82.5556 44.5154C80.8927 46.2102 78.8475 47.4084 76.6185 48.0711C75.3662 48.51 73.9359 48.7628 72.3039 48.7628H52.7383Z" fill="white"/>
<path d="M0.888672 1.62726H5.69114L17.1637 41.381L15.385 48.7626L0.888672 1.62726Z" fill="white"/>
<path d="M17.2539 48.7627H21.9674L31.9281 10.1651L43.3117 48.7627L45.624 41.2033L33.7068 1.62738H29.2601L17.2539 48.7627Z" fill="white"/>
</svg>
